<svg width="59" height="93" viewBox="0 0 59 93" fill="none" xmlns="http://www.w3.org/2000/svg">
<path d="M18.9235 87.5097L58.1578 48.2728C58.719 47.7122 59 47.0672 59 46.3377C59 45.6081 58.719 44.962 58.1578 44.4011L18.9235 5.16738C18.3614 4.60531 17.7165 4.32516 16.9866 4.32516C16.2571 4.32516 15.6113 4.6062 15.0504 5.16738L10.8419 9.37613C10.2807 9.93731 10.0003 10.5831 10.0003 11.3127C10.0003 12.0423 10.2807 12.6881 10.8419 13.2493L43.9297 46.3377L10.8399 79.4272C10.2787 79.9881 10 80.6342 10 81.3626C10 82.0934 10.2804 82.7392 10.8399 83.3001L15.0501 87.5094C15.611 88.0703 16.2571 88.349 16.9863 88.349C17.7165 88.3493 18.3623 88.0706 18.9235 87.5097Z" fill="#017CCB"/>
<path d="M8.92351 87.5097L48.1578 48.2728C48.719 47.7122 49 47.0672 49 46.3377C49 45.6081 48.719 44.962 48.1578 44.4011L8.92351 5.16738C8.36144 4.60531 7.71651 4.32516 6.98665 4.32516C6.25708 4.32516 5.61125 4.6062 5.05036 5.16738L0.841922 9.37613C0.280737 9.93731 0.0002914 10.5831 0.0002914 11.3127C0.0002914 12.0423 0.280737 12.6881 0.841922 13.2493L33.9297 46.3377L0.839857 79.4272C0.278672 79.9881 -1.08281e-06 80.6342 -1.08281e-06 81.3626C-1.08281e-06 82.0934 0.280441 82.7392 0.839857 83.3001L5.05007 87.5094C5.61096 88.0703 6.25707 88.349 6.98635 88.349C7.71651 88.3493 8.36233 88.0706 8.92351 87.5097Z" fill="#017CCB"/>
<path d="M16.5 4.32516H6.5C6 5.32516 5 7.52516 5 8.32516C5 9.32516 10 10.3252 11.5 10.3252H20L16.5 4.32516Z" fill="#017CCB"/>
<path d="M7.26667 88.3252H16.6C17.0667 87.3252 18 85.1252 18 84.3252C18 83.3252 13.3333 82.3252 11.9333 82.3252H4L7.26667 88.3252Z" fill="#017CCB"/>
<path d="M9.5 91.8252L7 89.3252C10.3333 89.3252 16.5 89.8252 14.5 91.8252C12.5 93.8252 10.3333 92.6585 9.5 91.8252Z" fill="#017CCB"/>
<path d="M9.5 91.8252L3 85.3252L22 84.3252L14.5 91.8252H9.5Z" fill="#017CCB"/>
<path d="M15 1.32516L19.5 5.82516L20.0938 6.32516H3.87891C4.54557 5.6585 6.6 3.72516 9 1.32516C11.4 -1.07484 14 0.325164 15 1.32516Z" fill="#017CCB"/>
</svg>
