<svg width="59" height="93" viewBox="0 0 59 93" fill="none" xmlns="http://www.w3.org/2000/svg">
<path d="M40.0765 5.41975L0.84222 44.6567C0.281036 45.2173 0 45.8622 0 46.5918C0 47.3214 0.281036 47.9675 0.84222 48.5284L40.0765 87.7621C40.6386 88.3242 41.2835 88.6043 42.0134 88.6043C42.7429 88.6043 43.3887 88.3233 43.9496 87.7621L48.1581 83.5533C48.7193 82.9922 48.9997 82.3463 48.9997 81.6168C48.9997 80.8872 48.7193 80.2414 48.1581 79.6802L15.0703 46.5918L48.1601 13.5022C48.7213 12.9413 49 12.2952 49 11.5668C49 10.8361 48.7196 10.1903 48.1601 9.62937L43.9499 5.42004C43.389 4.85915 42.7429 4.58047 42.0137 4.58047C41.2835 4.58018 40.6377 4.85886 40.0765 5.41975Z" fill="#017CCB"/>
<path d="M50.0765 5.41975L10.8422 44.6567C10.281 45.2173 10 45.8622 10 46.5918C10 47.3214 10.281 47.9675 10.8422 48.5284L50.0765 87.7621C50.6386 88.3242 51.2835 88.6043 52.0134 88.6043C52.7429 88.6043 53.3887 88.3233 53.9496 87.7621L58.1581 83.5533C58.7193 82.9922 58.9997 82.3463 58.9997 81.6168C58.9997 80.8872 58.7193 80.2414 58.1581 79.6802L25.0703 46.5918L58.1601 13.5022C58.7213 12.9413 59 12.2952 59 11.5668C59 10.8361 58.7196 10.1903 58.1601 9.62937L53.9499 5.42004C53.389 4.85915 52.7429 4.58047 52.0137 4.58047C51.2835 4.58018 50.6377 4.85886 50.0765 5.41975Z" fill="#017CCB"/>
<path d="M42.5 88.6043H52.5C53 87.6043 54 85.4043 54 84.6043C54 83.6043 49 82.6043 47.5 82.6043H39L42.5 88.6043Z" fill="#017CCB"/>
<path d="M51.7333 4.60431L42.4 4.60431C41.9333 5.60431 41 7.80431 41 8.60431C41 9.60431 45.6667 10.6043 47.0667 10.6043L55 10.6043L51.7333 4.60431Z" fill="#017CCB"/>
<path d="M49.5 1.10431L52 3.60431C48.6667 3.60431 42.5 3.10431 44.5 1.10431C46.5 -0.895691 48.6667 0.270976 49.5 1.10431Z" fill="#017CCB"/>
<path d="M49.5 1.10431L56 7.60431L37 8.60431L44.5 1.10431L49.5 1.10431Z" fill="#017CCB"/>
<path d="M44 91.6043L39.5 87.1043L38.9062 86.6043H55.1211C54.4544 87.271 52.4 89.2043 50 91.6043C47.6 94.0043 45 92.6043 44 91.6043Z" fill="#017CCB"/>
</svg>
