<svg width="71" height="64" viewBox="0 0 71 64" fill="none" xmlns="http://www.w3.org/2000/svg">
<path d="M70.2143 1.64868C69.7479 0.643257 68.7401 0 67.6317 0H2.84698C1.73873 0 0.730963 0.643119 0.264454 1.64868C-0.202056 2.65424 -0.0425148 3.83889 0.673148 4.68533L25.9139 34.5326V54.6746C25.9139 55.7529 26.5232 56.7388 27.4877 57.2211L40.4447 63.6995C40.8465 63.9005 41.2827 64 41.7178 64C42.2384 64 42.7574 63.8574 43.2147 63.5748C44.054 63.056 44.5649 62.1396 44.5649 61.1529V34.5326L69.8057 4.68533C70.5214 3.83889 70.6806 2.65411 70.2143 1.64868ZM39.5439 31.6517C39.1093 32.1657 38.8709 32.8171 38.8709 33.4901V56.5466L31.6078 52.9151V33.4902C31.6078 32.8171 31.3693 32.1659 30.9347 31.6519L8.98318 5.69392H61.4957L39.5439 31.6517Z" fill="#2B6AED"/>
</svg>
