<svg width="14" height="18" viewBox="0 0 14 18" fill="none" xmlns="http://www.w3.org/2000/svg">
<path d="M12.5501 8.2C12.3201 7.9 12.0501 7.64 11.7901 7.38C11.1401 6.78 10.3901 6.35 9.76009 5.72C8.30009 4.26 8.00009 1.85 8.91009 0C8.00009 0.23 7.16009 0.75 6.46009 1.32C3.92009 3.4 2.92009 7.07 4.12009 10.22C4.16009 10.32 4.20009 10.42 4.20009 10.55C4.20009 10.77 4.05009 10.97 3.85009 11.05C3.63009 11.15 3.39009 11.09 3.21009 10.93C3.15009 10.88 3.11009 10.83 3.06009 10.76C1.96009 9.33 1.78009 7.28 2.53009 5.64C0.890094 7 9.33921e-05 9.3 0.140093 11.47C0.180093 11.97 0.240093 12.47 0.410093 12.97C0.550093 13.57 0.810094 14.17 1.13009 14.7C2.17009 16.43 4.00009 17.67 5.97009 17.92C8.07009 18.19 10.3201 17.8 11.9301 16.32C13.7301 14.66 14.3801 12 13.4301 9.72L13.3001 9.46C13.1001 9 12.8301 8.59 12.5001 8.21L12.5501 8.2ZM9.45009 14.5C9.17009 14.74 8.72009 15 8.37009 15.1C7.27009 15.5 6.17009 14.94 5.50009 14.28C6.69009 14 7.39009 13.12 7.59009 12.23C7.76009 11.43 7.45009 10.77 7.32009 10C7.20009 9.26 7.22009 8.63 7.50009 7.94C7.67009 8.32 7.87009 8.7 8.10009 9C8.86009 10 10.0501 10.44 10.3001 11.8C10.3401 11.94 10.3601 12.08 10.3601 12.23C10.3901 13.05 10.0401 13.95 9.44009 14.5H9.45009Z" fill="#E20404"/>
</svg>
