<svg width="48" height="49" viewBox="0 0 48 49" fill="none" xmlns="http://www.w3.org/2000/svg">
<path fill-rule="evenodd" clip-rule="evenodd" d="M31.94 36.1418C28.553 38.6488 39.085 27.8788 36.088 31.9728C36.163 31.9668 36.024 32.1938 35.558 32.7628C35.558 32.7628 43.562 40.7128 47.491 44.7588C48.855 46.2338 46.394 49.1778 44.722 47.6408C41.164 44.1888 32.745 35.6098 32.732 35.5958L31.94 36.1418Z" fill="#6C6C6C"/>
<path d="M20.179 40.162C25.329 40.112 30.427 37.979 34.093 34.356C38.447 30.053 40.689 23.687 39.907 17.609C38.567 7.19397 30.005 0.125977 20.051 0.125977C12.488 0.125977 5.13803 4.85698 1.91403 11.717C-0.553967 16.969 -0.558967 23.31 1.91403 28.571C5.11503 35.383 12.345 40.089 19.922 40.162C20.008 40.162 20.094 40.162 20.179 40.162ZM19.943 36.825C12.252 36.751 5.07603 30.803 3.64903 23.177C2.64303 17.801 4.54203 11.983 8.49803 8.16498C13.116 3.70598 20.375 2.21298 26.411 4.73998C31.811 7.00098 35.853 12.251 36.598 18.035C37.236 22.993 35.457 28.189 31.961 31.768C28.894 34.908 24.593 36.782 20.158 36.825C20.086 36.825 20.015 36.825 19.943 36.825Z" fill="#6C6C6C"/>
</svg>
