<svg width="93" height="59" viewBox="0 0 93 59" fill="none" xmlns="http://www.w3.org/2000/svg">
<path d="M87.5098 40.0765L48.2728 0.84222C47.7122 0.281036 47.0673 0 46.3377 0C45.6081 0 44.962 0.281036 44.4011 0.84222L5.16742 40.0765C4.60535 40.6386 4.3252 41.2835 4.3252 42.0134C4.3252 42.7429 4.60623 43.3887 5.16742 43.9496L9.37616 48.1581C9.93734 48.7193 10.5832 48.9997 11.3127 48.9997C12.0423 48.9997 12.6881 48.7193 13.2493 48.1581L46.3377 15.0703L79.4273 48.1601C79.9882 48.7213 80.6343 49 81.3627 49C82.0934 49 82.7392 48.7196 83.3001 48.1601L87.5095 43.9499C88.0704 43.389 88.349 42.7429 88.349 42.0137C88.3493 41.2835 88.0706 40.6377 87.5098 40.0765Z" fill="#017CCB"/>
<path d="M87.5098 50.0765L48.2728 10.8422C47.7122 10.281 47.0673 10 46.3377 10C45.6081 10 44.962 10.281 44.4011 10.8422L5.16742 50.0765C4.60535 50.6386 4.3252 51.2835 4.3252 52.0134C4.3252 52.7429 4.60623 53.3887 5.16742 53.9496L9.37616 58.1581C9.93734 58.7193 10.5832 58.9997 11.3127 58.9997C12.0423 58.9997 12.6881 58.7193 13.2493 58.1581L46.3377 25.0703L79.4273 58.1601C79.9882 58.7213 80.6343 59 81.3627 59C82.0934 59 82.7392 58.7196 83.3001 58.1601L87.5095 53.9499C88.0704 53.389 88.349 52.7429 88.349 52.0137C88.3493 51.2835 88.0706 50.6377 87.5098 50.0765Z" fill="#017CCB"/>
<path d="M4.3252 42.5V52.5C5.3252 53 7.5252 54 8.3252 54C9.3252 54 10.3252 49 10.3252 47.5V39L4.3252 42.5Z" fill="#017CCB"/>
<path d="M88.3252 51.7333V42.4C87.3252 41.9333 85.1252 41 84.3252 41C83.3252 41 82.3252 45.6667 82.3252 47.0667V55L88.3252 51.7333Z" fill="#017CCB"/>
<path d="M91.8252 49.5L89.3252 52C89.3252 48.6667 89.8252 42.5 91.8252 44.5C93.8252 46.5 92.6585 48.6667 91.8252 49.5Z" fill="#017CCB"/>
<path d="M91.8252 49.5L85.3252 56L84.3252 37L91.8252 44.5V49.5Z" fill="#017CCB"/>
<path d="M1.32516 44L5.82516 39.5L6.32516 38.9062L6.32516 55.1211C5.6585 54.4544 3.72516 52.4 1.32516 50C-1.07484 47.6 0.325164 45 1.32516 44Z" fill="#017CCB"/>
</svg>
