<svg width="93" height="60" viewBox="0 0 93 60" fill="none" xmlns="http://www.w3.org/2000/svg">
<path d="M5.45496 19.8884L44.6919 59.1226C45.2525 59.6838 45.8974 59.9648 46.627 59.9648C47.3566 59.9648 48.0027 59.6838 48.5636 59.1226L87.7973 19.8884C88.3594 19.3263 88.6395 18.6814 88.6395 17.9515C88.6395 17.2219 88.3585 16.5761 87.7973 16.0152L83.5886 11.8068C83.0274 11.2456 82.3816 10.9651 81.652 10.9651C80.9224 10.9651 80.2766 11.2456 79.7154 11.8068L46.627 44.8945L13.5374 11.8047C12.9766 11.2435 12.3304 10.9648 11.6021 10.9648C10.8713 10.9648 10.2255 11.2453 9.66459 11.8047L5.45526 16.0149C4.89437 16.5758 4.61569 17.2219 4.61569 17.9512C4.61539 18.6814 4.89407 19.3272 5.45496 19.8884Z" fill="#017CCB"/>
<path d="M5.45496 9.88836L44.6919 49.1226C45.2525 49.6838 45.8974 49.9648 46.627 49.9648C47.3566 49.9648 48.0027 49.6838 48.5636 49.1226L87.7973 9.88836C88.3594 9.32629 88.6395 8.68135 88.6395 7.95149C88.6395 7.22192 88.3585 6.5761 87.7973 6.01521L83.5886 1.80677C83.0274 1.24558 82.3816 0.965134 81.652 0.965134C80.9224 0.965134 80.2766 1.24558 79.7154 1.80677L46.627 34.8945L13.5374 1.8047C12.9766 1.24352 12.3304 0.964844 11.6021 0.964844C10.8713 0.964844 10.2255 1.24529 9.66459 1.8047L5.45526 6.01492C4.89437 6.57581 4.61569 7.22192 4.61569 7.95119C4.61539 8.68135 4.89407 9.32717 5.45496 9.88836Z" fill="#017CCB"/>
<path d="M88.6395 17.4648V7.46484C87.6395 6.96484 85.4395 5.96484 84.6395 5.96484C83.6395 5.96484 82.6395 10.9648 82.6395 12.4648V20.9648L88.6395 17.4648Z" fill="#017CCB"/>
<path d="M4.63953 8.23151L4.63953 17.5648C5.63953 18.0315 7.83953 18.9648 8.63953 18.9648C9.63953 18.9648 10.6395 14.2982 10.6395 12.8982L10.6395 4.96484L4.63953 8.23151Z" fill="#017CCB"/>
<path d="M1.13953 10.4648L3.63953 7.96484C3.63953 11.2982 3.13953 17.4648 1.13953 15.4648C-0.860474 13.4648 0.306193 11.2982 1.13953 10.4648Z" fill="#017CCB"/>
<path d="M1.13953 10.4648L7.63953 3.96484L8.63953 22.9648L1.13953 15.4648L1.13953 10.4648Z" fill="#017CCB"/>
<path d="M91.6396 15.9648L87.1396 20.4648L86.6396 21.0586V4.84375C87.3062 5.51042 89.2396 7.56484 91.6396 9.96484C94.0396 12.3648 92.6396 14.9648 91.6396 15.9648Z" fill="#017CCB"/>
</svg>
